<svg width="134" height="182" viewBox="0 0 134 182" fill="none" xmlns="http://www.w3.org/2000/svg">
<g opacity="0.8" clip-path="url(#clip0_2234_9590)">
<path d="M39.4071 176.675C40.8793 176.676 41.9826 177.785 41.9815 179.262C41.9805 180.739 40.8756 181.846 39.4034 181.845C37.9313 181.844 36.8279 180.735 36.829 179.258C36.8301 177.781 38.0577 176.674 39.4071 176.675Z" fill="#FFCF2D"/>
<path d="M39.4232 154.642C40.8954 154.643 41.9987 155.751 41.9976 157.228C41.9966 158.705 40.8917 159.812 39.4195 159.811C37.9474 159.81 36.8441 158.702 36.8451 157.225C36.8461 155.871 38.0738 154.641 39.4232 154.642Z" fill="#FFCF2D"/>
<path d="M39.4389 132.733C40.911 132.734 42.0143 133.842 42.0133 135.319C42.0122 136.796 40.9073 137.903 39.4351 137.902C37.963 137.901 36.8597 136.793 36.8607 135.316C36.8618 133.839 38.0894 132.732 39.4389 132.733Z" fill="#FFCF2D"/>
<path d="M39.455 110.7C40.9271 110.701 42.0304 111.81 42.0294 113.287C42.0283 114.764 40.9234 115.871 39.4513 115.87C37.9791 115.869 36.8758 114.76 36.8769 113.283C36.8779 111.806 38.1055 110.699 39.455 110.7Z" fill="#FFCF2D"/>
<path d="M39.4706 88.6682C40.9427 88.6692 42.0461 89.7778 42.045 91.2548C42.0439 92.7319 40.939 93.8388 39.4669 93.8378C37.9947 93.8367 36.8914 92.7282 36.8925 91.2511C36.8935 89.8972 38.1211 88.6672 39.4706 88.6682Z" fill="#FFCF2D"/>
<path d="M39.4862 66.6349C40.9584 66.636 42.0617 67.7446 42.0606 69.2216C42.0596 70.6987 40.9547 71.8056 39.4825 71.8046C38.0104 71.8035 36.907 70.695 36.9081 69.2179C36.9092 67.7409 38.1368 66.634 39.4862 66.6349Z" fill="#FFCF2D"/>
<path d="M39.5023 44.7258C40.9745 44.7268 42.0778 45.8354 42.0767 47.3124C42.0757 48.7895 40.9708 49.8965 39.4986 49.8954C38.0265 49.8943 36.9232 48.7858 36.9242 47.3087C36.9253 45.8317 38.1529 44.7248 39.5023 44.7258Z" fill="#FFCF2D"/>
<path d="M39.518 22.6936C40.9901 22.6946 42.0934 23.8032 42.0924 25.2802C42.0913 26.7573 40.9864 27.8642 39.5142 27.8632C38.0421 27.8621 36.9388 26.7536 36.9398 25.2765C36.9409 23.7995 38.1685 22.6926 39.518 22.6936Z" fill="#FFCF2D"/>
<path d="M39.5341 0.661339C41.0062 0.662397 42.1095 1.77096 42.1085 3.24799C42.1074 4.72502 41.0025 5.83201 39.5304 5.83095C38.0582 5.8299 36.9549 4.72132 36.956 3.24428C36.9569 1.89034 38.1846 0.660368 39.5341 0.661339Z" fill="#FFCF2D"/>
<path d="M57.6864 176.688C59.1586 176.689 60.2619 177.797 60.2608 179.274C60.2598 180.751 59.1549 181.858 57.6827 181.857C56.2106 181.856 55.1072 180.748 55.1083 179.271C55.1094 177.794 56.2143 176.687 57.6864 176.688Z" fill="#FFCF2D"/>
<path d="M57.7021 154.655C59.1742 154.657 60.2775 155.765 60.2765 157.242C60.2754 158.719 59.1705 159.826 57.6983 159.825C56.2262 159.824 55.1229 158.715 55.1239 157.238C55.1249 155.884 56.2299 154.654 57.7021 154.655Z" fill="#FFCF2D"/>
<path d="M57.7182 132.746C59.1903 132.747 60.2936 133.856 60.2926 135.333C60.2915 136.81 59.1866 137.917 57.7144 137.916C56.2423 137.915 55.139 136.806 55.14 135.329C55.1411 133.852 56.246 132.745 57.7182 132.746Z" fill="#FFCF2D"/>
<path d="M57.7338 110.714C59.2059 110.715 60.3093 111.824 60.3082 113.301C60.3071 114.778 59.2022 115.885 57.7301 115.884C56.2579 115.883 55.1546 114.774 55.1557 113.297C55.1567 111.82 56.2616 110.713 57.7338 110.714Z" fill="#FFCF2D"/>
<path d="M57.7494 88.6808C59.2216 88.6819 60.3249 89.7905 60.3238 91.2675C60.3228 92.7446 59.2178 93.8515 57.7457 93.8505C56.2735 93.8494 55.1702 92.7409 55.1713 91.2638C55.1723 89.9099 56.2773 88.6798 57.7494 88.6808Z" fill="#FFCF2D"/>
<path d="M57.7655 66.6486C59.2377 66.6497 60.341 67.7583 60.3399 69.2353C60.3389 70.7123 59.234 71.8193 57.7618 71.8183C56.2897 71.8172 55.1863 70.7086 55.1874 69.2316C55.1885 67.7545 56.2934 66.6476 57.7655 66.6486Z" fill="#FFCF2D"/>
<path d="M57.7812 44.7394C59.2533 44.7405 60.3566 45.8491 60.3556 47.3261C60.3545 48.8031 59.2496 49.9101 57.7774 49.9091C56.3053 49.908 55.202 48.7994 55.203 47.3224C55.2041 45.8454 56.309 44.7384 57.7812 44.7394Z" fill="#FFCF2D"/>
<path d="M57.7973 22.7062C59.2694 22.7073 60.3727 23.8159 60.3717 25.2929C60.3706 26.77 59.2657 27.8769 57.7936 27.8759C56.3214 27.8748 55.2181 26.7662 55.2191 25.2892C55.2202 23.8122 56.3251 22.7052 57.7973 22.7062Z" fill="#FFCF2D"/>
<path d="M57.8129 0.674019C59.285 0.675078 60.3884 1.78364 60.3873 3.26068C60.3862 4.73772 59.2813 5.84471 57.8092 5.84365C56.337 5.84259 55.2337 4.73401 55.2348 3.25697C55.2357 1.90302 56.3407 0.67296 57.8129 0.674019Z" fill="#FFCF2D"/>
<path d="M2.97158 176.649C4.44373 176.65 5.54704 177.758 5.54598 179.235C5.54492 180.712 4.44001 181.819 2.96786 181.818C1.49571 181.817 0.392398 180.709 0.39346 179.232C0.394523 177.755 1.49943 176.648 2.97158 176.649Z" fill="#FFCF2D"/>
<path d="M2.9872 154.616C4.45935 154.617 5.56267 155.726 5.56161 157.203C5.56054 158.68 4.45564 159.787 2.98349 159.786C1.51134 159.785 0.408023 158.676 0.409085 157.199C0.410059 155.845 1.51506 154.615 2.9872 154.616Z" fill="#FFCF2D"/>
<path d="M3.00332 132.707C4.47547 132.708 5.57878 133.817 5.57772 135.294C5.57666 136.771 4.47175 137.878 2.9996 137.877C1.52745 137.876 0.424225 136.644 0.425199 135.29C0.426261 133.813 1.53117 132.706 3.00332 132.707Z" fill="#FFCF2D"/>
<path d="M3.01894 110.674C4.49109 110.675 5.59441 111.784 5.59334 113.261C5.59228 114.738 4.48737 115.845 3.01522 115.844C1.54308 115.843 0.43985 114.611 0.440824 113.257C0.441797 111.903 1.54679 110.673 3.01894 110.674Z" fill="#FFCF2D"/>
<path d="M3.03506 88.6418C4.5072 88.6428 5.61052 89.7514 5.60946 91.2285C5.60839 92.7055 4.50349 93.8125 3.03134 93.8114C1.55919 93.8104 0.455875 92.7018 0.456937 91.2248C0.457911 89.8708 1.56291 88.6407 3.03506 88.6418Z" fill="#FFCF2D"/>
<path d="M3.05068 66.6086C4.52283 66.6096 5.62614 67.7182 5.62508 69.1953C5.62402 70.6723 4.51911 71.7793 3.04696 71.7782C1.57481 71.7772 0.4715 70.6686 0.472562 69.1915C0.473624 67.7145 1.57853 66.6075 3.05068 66.6086Z" fill="#FFCF2D"/>
<path d="M3.06631 44.7004C4.53845 44.7014 5.64177 45.81 5.64071 47.287C5.63964 48.7641 4.53474 49.8711 3.06259 49.87C1.59044 49.869 0.487125 48.7604 0.488187 47.2833C0.489249 45.8063 1.59416 44.6993 3.06631 44.7004Z" fill="#FFCF2D"/>
<path d="M3.08242 22.6672C4.55457 22.6682 5.65788 23.7768 5.65682 25.2538C5.65576 26.7309 4.55085 27.8379 3.0787 27.8368C1.60655 27.8358 0.503238 26.7272 0.5043 25.2501C0.505362 23.7731 1.61027 22.6661 3.08242 22.6672Z" fill="#FFCF2D"/>
<path d="M3.09804 0.634972C4.57019 0.63603 5.67351 1.74459 5.67245 3.22162C5.67138 4.69866 4.56647 5.80565 3.09433 5.80459C1.62218 5.80353 0.518863 4.69495 0.519925 3.21792C0.520899 1.86397 1.6259 0.633913 3.09804 0.634972Z" fill="#FFCF2D"/>
<path d="M21.2509 176.661C22.723 176.662 23.8263 177.771 23.8253 179.248C23.8242 180.725 22.5966 181.832 21.2472 181.831C19.775 181.83 18.6717 180.721 18.6728 179.244C18.6738 177.767 19.7787 176.66 21.2509 176.661Z" fill="#FFCF2D"/>
<path d="M21.2665 154.629C22.7386 154.63 23.842 155.739 23.8409 157.216C23.8398 158.693 22.7349 159.8 21.2628 159.799C19.7906 159.798 18.6873 158.689 18.6884 157.212C18.6894 155.858 19.7944 154.628 21.2665 154.629Z" fill="#FFCF2D"/>
<path d="M21.2826 132.72C22.7548 132.721 23.8581 133.83 23.857 135.307C23.856 136.784 22.751 137.891 21.2789 137.89C19.8067 137.888 18.7034 136.78 18.7045 135.303C18.7056 133.826 19.8105 132.719 21.2826 132.72Z" fill="#FFCF2D"/>
<path d="M21.2982 110.688C22.7704 110.689 23.8737 111.797 23.8726 113.274C23.8716 114.751 22.7667 115.858 21.2945 115.857C19.8224 115.856 18.7191 114.748 18.7201 113.271C18.7212 111.794 19.8261 110.687 21.2982 110.688Z" fill="#FFCF2D"/>
<path d="M21.3144 88.6545C22.7865 88.6555 23.8898 89.7641 23.8888 91.2412C23.8877 92.7182 22.7828 93.8252 21.3106 93.8241C19.8385 93.8231 18.7352 92.7145 18.7362 91.2374C18.7372 89.8835 19.8422 88.6534 21.3144 88.6545Z" fill="#FFCF2D"/>
<path d="M21.33 66.6223C22.8021 66.6233 23.9054 67.7319 23.9044 69.2089C23.9033 70.686 22.7984 71.793 21.3263 71.7919C19.8541 71.7908 18.7508 70.6823 18.7519 69.2052C18.7529 67.7282 19.8578 66.6212 21.33 66.6223Z" fill="#FFCF2D"/>
<path d="M21.3456 44.7131C22.8178 44.7141 23.9211 45.8227 23.92 47.2997C23.9189 48.7768 22.814 49.8838 21.3419 49.8827C19.8697 49.8817 18.7664 48.7731 18.7675 47.296C18.7685 45.819 19.8735 44.712 21.3456 44.7131Z" fill="#FFCF2D"/>
<path d="M21.3617 22.6808C22.8339 22.6819 23.9372 23.7905 23.9361 25.2675C23.9351 26.7446 22.8301 27.8515 21.358 27.8505C19.8858 27.8494 18.7825 26.7409 18.7836 25.2638C18.7847 23.7868 19.8896 22.6798 21.3617 22.6808Z" fill="#FFCF2D"/>
<path d="M21.3773 0.647652C22.8495 0.64871 23.9528 1.75727 23.9517 3.23431C23.9507 4.71135 22.8458 5.81834 21.3736 5.81728C19.9015 5.81622 18.7982 4.70764 18.7992 3.23061C18.8002 1.87665 19.9052 0.646593 21.3773 0.647652Z" fill="#FFCF2D"/>
<path d="M75.8432 176.701C77.3153 176.702 78.4186 177.811 78.4176 179.288C78.4165 180.765 77.3116 181.872 75.8394 181.871C74.3673 181.87 73.264 180.761 73.265 179.284C73.2661 177.807 74.4937 176.7 75.8432 176.701Z" fill="#FFCF2D"/>
<path d="M75.8588 154.668C77.3309 154.669 78.4342 155.778 78.4332 157.255C78.4321 158.732 77.3272 159.839 75.8551 159.838C74.3829 159.837 73.2796 158.728 73.2807 157.251C73.2816 155.897 74.5093 154.667 75.8588 154.668Z" fill="#FFCF2D"/>
<path d="M75.8744 132.759C77.3466 132.76 78.4499 133.869 78.4488 135.346C78.4477 136.823 77.3428 137.93 75.8707 137.929C74.3985 137.928 73.2952 136.819 73.2963 135.342C73.2974 133.865 74.5249 132.758 75.8744 132.759Z" fill="#FFCF2D"/>
<path d="M75.8905 110.727C77.3627 110.728 78.466 111.836 78.4649 113.313C78.4639 114.79 77.3589 115.897 75.8868 115.896C74.4147 115.895 73.3113 114.787 73.3124 113.31C73.3135 111.833 74.5411 110.726 75.8905 110.727Z" fill="#FFCF2D"/>
<path d="M75.9061 88.6945C77.3783 88.6956 78.4816 89.8042 78.4805 91.2812C78.4795 92.7582 77.3746 93.8652 75.9024 93.8642C74.4303 93.8631 73.327 92.7545 73.328 91.2775C73.329 89.9235 74.5567 88.6935 75.9061 88.6945Z" fill="#FFCF2D"/>
<path d="M75.9223 66.6613C77.3944 66.6624 78.4977 67.771 78.4967 69.248C78.4956 70.725 77.3907 71.832 75.9185 71.831C74.4464 71.8299 73.3431 70.7213 73.3441 69.2443C73.3452 67.7672 74.5728 66.6604 75.9223 66.6613Z" fill="#FFCF2D"/>
<path d="M75.9379 44.7521C77.41 44.7532 78.5133 45.8618 78.5123 47.3388C78.5112 48.8158 77.4063 49.9228 75.9342 49.9218C74.462 49.9207 73.3587 48.8121 73.3598 47.3351C73.3608 45.8581 74.5884 44.7512 75.9379 44.7521Z" fill="#FFCF2D"/>
<path d="M75.954 22.7199C77.4261 22.721 78.5295 23.8295 78.5284 25.3066C78.5273 26.7836 77.4224 27.8906 75.9503 27.8895C74.4781 27.8885 73.3748 26.7799 73.3759 25.3029C73.3769 23.8258 74.6045 22.7189 75.954 22.7199Z" fill="#FFCF2D"/>
<path d="M75.9696 0.686714C77.4418 0.687773 78.5451 1.79633 78.544 3.27337C78.543 4.75041 77.4381 5.8574 75.9659 5.85634C74.4938 5.85529 73.3904 4.74671 73.3915 3.26967C73.3925 1.91572 74.6202 0.685744 75.9696 0.686714Z" fill="#FFCF2D"/>
<path d="M94.122 176.714C95.5941 176.715 96.6974 177.824 96.6964 179.301C96.6953 180.778 95.5904 181.885 94.1182 181.884C92.6461 181.883 91.5428 180.774 91.5439 179.297C91.5449 177.82 92.6498 176.713 94.122 176.714Z" fill="#FFCF2D"/>
<path d="M94.1381 154.682C95.6102 154.683 96.7135 155.791 96.7125 157.268C96.7114 158.746 95.6065 159.853 94.1344 159.851C92.6622 159.85 91.5589 158.742 91.56 157.265C91.5609 155.911 92.6659 154.681 94.1381 154.682Z" fill="#FFCF2D"/>
<path d="M94.1537 132.773C95.6259 132.774 96.7292 133.882 96.7281 135.359C96.727 136.836 95.6221 137.943 94.15 137.942C92.6778 137.941 91.5745 136.833 91.5756 135.356C91.5767 133.879 92.6816 132.772 94.1537 132.773Z" fill="#FFCF2D"/>
<path d="M96.7437 113.326C96.7448 111.899 95.5922 110.74 94.1693 110.739C92.7465 110.738 91.5922 111.895 91.5912 113.322C91.5902 114.75 92.7428 115.908 94.1656 115.909C95.5884 115.91 96.7427 114.754 96.7437 113.326Z" fill="#FFCF2D"/>
<path d="M94.1854 88.7072C95.6576 88.7083 96.7609 89.8168 96.7598 91.2939C96.7588 92.7709 95.6539 93.8779 94.1817 93.8769C92.7096 93.8758 91.6063 92.7672 91.6073 91.2902C91.6083 89.9362 92.7133 88.7062 94.1854 88.7072Z" fill="#FFCF2D"/>
<path d="M94.2011 66.675C95.6732 66.676 96.7765 67.7846 96.7755 69.2617C96.7744 70.7387 95.6695 71.8457 94.1973 71.8446C92.7252 71.8436 91.6219 70.735 91.623 69.258C91.624 67.7809 92.7289 66.6739 94.2011 66.675Z" fill="#FFCF2D"/>
<path d="M94.2172 44.7658C95.6893 44.7669 96.7926 45.8754 96.7916 47.3525C96.7905 48.8295 95.6856 49.9365 94.2135 49.9354C92.7413 49.9344 91.638 48.8258 91.6391 47.3488C91.6401 45.8717 92.745 44.7647 94.2172 44.7658Z" fill="#FFCF2D"/>
<path d="M96.8072 25.3193C96.8082 23.8917 95.6556 22.7336 94.2328 22.7326C92.81 22.7316 91.6557 23.888 91.6547 25.3156C91.6537 26.7431 92.8063 27.9012 94.2291 27.9022C95.6519 27.9033 96.8062 26.7468 96.8072 25.3193Z" fill="#FFCF2D"/>
<path d="M94.2484 0.700386C95.7206 0.701445 96.8239 1.81001 96.8228 3.28704C96.8218 4.76408 95.7169 5.87108 94.2447 5.87002C92.7726 5.86896 91.6693 4.76038 91.6703 3.28334C91.6713 1.92939 92.7763 0.699327 94.2484 0.700386Z" fill="#FFCF2D"/>
<path d="M112.401 176.728C113.873 176.729 114.977 177.837 114.976 179.314C114.975 180.791 113.87 181.898 112.398 181.897C110.925 181.896 109.822 180.788 109.823 179.311C109.824 177.834 110.929 176.727 112.401 176.728Z" fill="#FFCF2D"/>
<path d="M112.417 154.695C113.89 154.696 114.993 155.804 114.992 157.281C114.991 158.758 113.886 159.865 112.414 159.864C110.942 159.863 109.838 158.755 109.839 157.277C109.84 155.924 110.945 154.693 112.417 154.695Z" fill="#FFCF2D"/>
<path d="M112.433 132.785C113.905 132.786 115.008 133.895 115.007 135.372C115.006 136.849 113.901 137.956 112.429 137.955C110.957 137.954 109.854 136.845 109.855 135.368C109.856 133.891 110.961 132.784 112.433 132.785Z" fill="#FFCF2D"/>
<path d="M112.449 110.753C113.921 110.754 115.024 111.863 115.023 113.34C115.022 114.817 113.917 115.924 112.445 115.923C110.973 115.922 109.869 114.813 109.871 113.336C109.872 111.859 110.976 110.752 112.449 110.753Z" fill="#FFCF2D"/>
<path d="M112.465 88.7199C113.937 88.721 115.04 89.8295 115.039 91.3066C115.038 92.7836 113.933 93.8906 112.461 93.8895C110.989 93.8885 109.886 92.7799 109.887 91.3029C109.888 89.9489 110.993 88.7189 112.465 88.7199Z" fill="#FFCF2D"/>
<path d="M112.48 66.6877C113.953 66.6887 115.056 67.7973 115.055 69.2744C115.054 70.7514 113.949 71.8584 112.477 71.8573C111.005 71.8563 109.901 70.7477 109.902 69.2707C109.903 67.7936 111.008 66.6866 112.48 66.6877Z" fill="#FFCF2D"/>
<path d="M112.496 44.7785C113.969 44.7796 115.072 45.8881 115.071 47.3652C115.07 48.8422 113.965 49.9492 112.493 49.9481C111.021 49.9471 109.917 48.8385 109.918 47.3615C109.919 45.8844 111.024 44.7775 112.496 44.7785Z" fill="#FFCF2D"/>
<path d="M112.512 22.7463C113.984 22.7473 115.088 23.8559 115.087 25.3329C115.085 26.81 113.981 27.917 112.508 27.9159C111.036 27.9149 109.933 26.8063 109.934 25.3292C109.935 23.8522 111.04 22.7452 112.512 22.7463Z" fill="#FFCF2D"/>
<path d="M112.528 0.713081C114 0.71414 115.103 1.8227 115.102 3.29974C115.101 4.77678 113.996 5.88377 112.524 5.88271C111.052 5.88165 109.949 4.77307 109.95 3.29603C109.951 1.94208 111.056 0.712023 112.528 0.713081Z" fill="#FFCF2D"/>
<path d="M130.558 176.74C132.03 176.741 133.133 177.85 133.132 179.327C133.131 180.804 132.026 181.911 130.554 181.91C129.082 181.909 127.979 180.8 127.98 179.323C127.981 177.846 129.209 176.739 130.558 176.74Z" fill="#FFCF2D"/>
<path d="M130.574 154.708C132.046 154.709 133.149 155.818 133.148 157.295C133.147 158.772 132.042 159.879 130.57 159.878C129.098 159.877 127.994 158.768 127.996 157.291C127.996 155.937 129.224 154.707 130.574 154.708Z" fill="#FFCF2D"/>
<path d="M130.589 132.799C132.061 132.8 133.165 133.909 133.164 135.386C133.163 136.863 132.058 137.97 130.586 137.969C129.113 137.968 128.01 136.859 128.011 135.382C128.012 133.905 129.24 132.798 130.589 132.799Z" fill="#FFCF2D"/>
<path d="M130.605 110.766C132.078 110.767 133.181 111.875 133.18 113.352C133.179 114.83 132.074 115.937 130.602 115.935C129.129 115.934 128.026 114.826 128.027 113.349C128.028 111.872 129.256 110.765 130.605 110.766Z" fill="#FFCF2D"/>
<path d="M130.621 88.7336C132.093 88.7346 133.196 89.8432 133.195 91.3203C133.194 92.7973 132.089 93.9043 130.617 93.9032C129.145 93.9022 128.042 92.7936 128.043 91.3166C128.044 89.9626 129.272 88.7326 130.621 88.7336Z" fill="#FFCF2D"/>
<path d="M130.637 66.7004C132.109 66.7014 133.213 67.81 133.211 69.2871C133.21 70.7641 132.106 71.8711 130.633 71.87C129.161 71.869 128.058 70.7604 128.059 69.2833C128.06 67.8063 129.288 66.6994 130.637 66.7004Z" fill="#FFCF2D"/>
<path d="M130.653 44.7922C132.125 44.7932 133.228 45.9018 133.227 47.3788C133.226 48.8559 132.121 49.9629 130.649 49.9618C129.177 49.9608 128.074 48.8522 128.075 47.3751C128.076 45.8981 129.303 44.7912 130.653 44.7922Z" fill="#FFCF2D"/>
<path d="M130.668 22.759C132.141 22.76 133.244 23.8686 133.243 25.3456C133.242 26.8227 132.137 27.9297 130.665 27.9286C129.192 27.9276 128.089 26.819 128.09 25.3419C128.091 23.8649 129.319 22.758 130.668 22.759Z" fill="#FFCF2D"/>
<path d="M130.684 0.726753C132.157 0.727812 133.26 1.83637 133.259 3.31341C133.258 4.79045 132.153 5.89744 130.681 5.89638C129.209 5.89533 128.105 4.78674 128.106 3.30971C128.107 1.95575 129.335 0.725783 130.684 0.726753Z" fill="#FFCF2D"/>
</g>
<defs>
<clipPath id="clip0_2234_9590">
<rect width="181.184" height="132.739" fill="white" transform="translate(0.391602 181.816) rotate(-89.9588)"/>
</clipPath>
</defs>
</svg>
